<?xml version="1.0" standalone="no"?>
<!DOCTYPE svg PUBLIC "-//W3C//DTD SVG 20010904//EN"
 "http://www.w3.org/TR/2001/REC-SVG-20010904/DTD/svg10.dtd">
<svg version="1.0" xmlns="http://www.w3.org/2000/svg"
 width="4905.000000pt" height="4571.000000pt" viewBox="0 0 4905.000000 4571.000000"
 preserveAspectRatio="xMidYMid meet">
<metadata>
Created by potrace 1.16, written by Peter Selinger 2001-2019
</metadata>
<g transform="translate(0.000000,4571.000000) scale(0.100000,-0.100000)"
fill="#000000" stroke="none">
<path d="M0 22855 l0 -22855 24525 0 24525 0 0 22855 0 22855 -24525 0 -24525
0 0 -22855z m24815 17541 c728 -13 1386 -112 1917 -291 180 -60 233 -82 231
-93 -1 -6 6 -8 17 -5 11 3 25 -3 36 -16 10 -11 22 -17 27 -14 6 4 7 1 2 -7 -6
-10 -4 -12 8 -7 9 3 19 1 23 -5 4 -7 3 -8 -4 -4 -7 4 -12 4 -12 -1 0 -11 1253
-1263 1263 -1263 5 0 5 6 1 13 -6 9 -5 9 8 0 8 -7 19 -9 23 -5 5 4 5 1 1 -6
-4 -7 -12 -10 -17 -7 -5 3 -6 -1 -3 -9 3 -9 11 -13 18 -9 6 4 4 -2 -4 -12 -8
-10 -10 -16 -3 -12 34 21 68 -122 84 -358 6 -90 9 -551 7 -1151 l-3 -1001
-205 82 c-540 216 -1160 401 -1692 506 l-168 33 0 742 c0 506 -4 760 -11 796
-27 127 -131 267 -283 380 -222 165 -551 252 -1101 289 -229 16 -890 6 -1085
-15 -551 -62 -809 -158 -1020 -383 -75 -79 -109 -132 -142 -223 l-23 -65 -2
-2880 c-1 -1584 -2 -5383 -2 -8442 -1 -3610 -4 -5563 -11 -5563 -5 0 -469 459
-1030 1020 l-1020 1020 0 7447 c0 7927 -2 7539 45 7724 84 332 237 593 496
844 497 481 1288 791 2314 904 316 35 823 63 980 54 22 -1 175 -5 340 -7z
m630 -3771 c149 -14 340 -34 425 -45 1035 -138 2038 -447 2990 -921 412 -206
702 -373 1059 -611 272 -182 633 -448 702 -517 38 -38 73 -66 84 -66 6 0 11
-6 11 -12 1 -7 2 -17 3 -22 0 -5 10 -11 22 -14 12 -3 19 -9 17 -14 -5 -10 59
-73 67 -65 3 3 5 -3 5 -12 0 -12 5 -16 16 -12 8 3 13 2 10 -3 -8 -12 63 -73
76 -65 7 4 8 3 4 -4 -8 -13 24 -53 36 -46 4 3 8 0 8 -6 0 -14 1005 -1020 1018
-1020 5 0 9 -8 8 -18 -1 -20 -142 -146 -821 -737 -208 -181 -424 -369 -479
-417 -55 -48 -101 -86 -101 -85 -8 11 -327 361 -423 464 -254 270 -622 596
-957 848 -1008 758 -2168 1258 -3385 1459 -662 109 -1266 131 -1940 70 l-165
-14 -387 387 -388 388 0 487 c0 455 1 487 18 492 115 34 678 98 1282 146 340
27 803 21 1185 -15z m-5126 -1159 l71 -68 0 -973 0 -973 -182 -133 c-531 -388
-979 -789 -1331 -1191 -1135 -1296 -1809 -2818 -1976 -4459 -35 -342 -44 -566
-38 -1002 6 -438 20 -633 72 -1007 197 -1399 772 -2717 1680 -3850 345 -430
746 -837 1170 -1185 840 -691 1851 -1217 2865 -1494 689 -188 1329 -272 2051
-272 487 1 917 35 1319 106 47 8 88 15 93 15 4 0 7 -434 7 -964 l0 -964 -77
-11 c-876 -124 -1922 -114 -2833 30 -193 30 -409 72 -406 78 2 3 -18 7 -44 8
-49 2 -110 26 -110 43 0 6 -9 10 -21 10 -11 0 -18 4 -15 9 8 12 -7334 7352
-7347 7344 -5 -3 -7 -1 -3 5 3 6 2 13 -4 17 -6 4 -8 11 -5 16 3 5 0 6 -8 3
-15 -5 -27 19 -45 96 -7 31 -8 46 0 49 6 2 5 6 -2 11 -7 5 -28 86 -46 183
-253 1336 -226 2796 76 4122 353 1550 1105 3014 2180 4246 719 825 1611 1547
2590 2099 91 51 179 101 195 111 17 11 35 18 42 16 7 -1 44 -33 82 -71z m6201
-1185 c409 -107 903 -294 1306 -493 220 -109 404 -209 404 -220 0 -4 4 -8 9
-8 5 0 52 -44 105 -97 l96 -97 0 -2657 0 -2657 -144 -50 c-182 -64 -223 -72
-431 -78 l-170 -6 -662 663 -663 664 0 2538 c0 2413 1 2538 18 2533 9 -2 69
-18 132 -35z m1435 -8366 c23 -22 30 -24 43 -13 11 8 10 4 -3 -11 -11 -14 -15
-22 -9 -18 5 3 110 -94 232 -216 l222 -222 -3 -5370 c-3 -5862 1 -5389 -57
-5615 -187 -727 -885 -1281 -1945 -1544 -516 -128 -1144 -197 -1785 -196
l-251 1 -1879 1879 -1879 1879 -1 556 0 555 32 -14 c18 -7 76 -33 128 -56 298
-133 726 -290 1080 -397 204 -61 605 -165 753 -193 l67 -14 0 -1026 c0 -642 4
-1048 10 -1081 24 -131 130 -277 283 -391 162 -120 382 -194 722 -242 521 -74
1359 -65 1820 19 294 54 458 124 597 255 94 88 172 195 210 287 l23 58 3 4833
2 4832 -448 0 c-463 0 -595 7 -767 41 -150 30 -230 55 -335 107 -183 89 -314
257 -354 454 -12 55 -16 136 -16 284 0 183 3 221 26 332 14 68 29 135 34 147
7 17 35 32 126 64 64 23 140 45 168 50 28 5 742 9 1587 10 l1536 1 28 -25z
m3390 -4162 c176 -137 417 -325 535 -417 118 -92 247 -199 286 -237 39 -38 74
-66 78 -62 4 5 6 3 4 -3 -4 -14 163 -180 177 -176 5 2 7 0 2 -4 -4 -4 2 -17
12 -28 l20 -21 -136 -170 c-781 -976 -1622 -1713 -2661 -2329 -157 -93 -383
-216 -398 -216 -7 0 -14 -5 -16 -12 -3 -7 -10 -8 -21 -2 -9 5 -134 126 -277
269 l-260 258 0 676 1 676 76 45 c42 25 159 100 261 168 695 462 1286 1005
1897 1744 44 53 85 95 90 94 6 -2 155 -116 330 -253z m-10438 -10508 c282 -54
497 -203 639 -444 161 -275 206 -725 109 -1090 -139 -518 -558 -822 -1064
-772 -481 49 -798 368 -876 881 -19 124 -19 398 0 515 78 483 369 819 786 910
88 19 307 19 406 0z m2398 0 c103 -22 245 -93 364 -182 24 -18 55 -33 68 -33
30 0 60 48 69 110 10 77 12 80 51 80 l36 0 -6 -172 c-4 -95 -7 -260 -7 -365
l0 -193 -38 0 -37 0 -23 114 c-42 214 -83 305 -183 405 -184 183 -508 245
-734 141 -127 -59 -235 -173 -314 -335 -107 -216 -148 -462 -138 -815 12 -408
87 -652 252 -817 114 -114 248 -169 440 -179 124 -7 218 11 321 62 41 20 89
53 108 74 45 50 50 92 44 365 -4 200 -6 215 -29 261 -33 67 -88 94 -204 102
l-85 5 0 32 0 33 390 -2 391 -1 -3 -30 c-3 -27 -7 -31 -44 -35 -58 -8 -91 -33
-103 -77 -7 -24 -11 -187 -11 -425 l0 -388 -34 0 c-31 0 -35 3 -41 33 -21 103
-47 147 -88 147 -8 0 -58 -30 -112 -66 -184 -125 -286 -157 -495 -157 -563 1
-925 324 -1007 898 -21 148 -13 419 17 558 96 451 381 766 770 848 108 22 317
25 415 4z m6602 0 c169 -32 321 -103 445 -206 64 -54 155 -168 203 -253 154
-276 195 -718 100 -1075 -123 -458 -470 -756 -903 -775 -530 -23 -908 277
-1027 814 -25 114 -32 447 -12 576 78 490 368 827 788 919 87 18 308 19 406 0z
m2054 -24 c32 -12 86 -40 120 -63 137 -88 168 -86 196 12 16 61 17 61 51 58
l35 -3 -2 -80 c-1 -45 -4 -90 -6 -100 -2 -11 -4 -120 -4 -242 l-1 -223 -24 0
c-43 0 -56 10 -56 45 0 61 -48 224 -90 305 -47 90 -144 190 -214 220 -92 39
-208 50 -308 29 -194 -41 -307 -212 -278 -421 13 -91 49 -159 124 -233 61 -61
103 -90 373 -260 220 -139 321 -213 408 -300 138 -139 185 -248 185 -430 0
-117 -18 -202 -59 -283 -106 -208 -353 -328 -653 -316 -53 2 -118 8 -145 14
-65 15 -177 61 -243 100 -67 40 -120 49 -140 25 -7 -9 -19 -37 -25 -63 -12
-45 -14 -47 -50 -50 l-38 -3 6 137 c4 75 7 247 7 381 l0 244 37 -3 37 -3 13
-95 c46 -343 190 -550 424 -605 208 -49 426 32 501 187 61 124 63 281 4 403
-55 117 -146 195 -455 395 -321 207 -387 262 -472 392 -60 94 -83 180 -83 313
0 167 34 264 128 363 129 137 261 184 501 178 114 -3 150 -7 196 -25z m-15175
-616 c135 -346 308 -794 386 -995 152 -393 173 -440 214 -489 29 -35 92 -71
124 -71 16 0 20 -6 20 -32 l0 -33 -375 0 -376 0 3 30 c3 29 5 30 69 37 88 8
145 38 154 79 4 17 4 47 0 67 -7 39 -213 601 -225 615 -6 7 -760 12 -765 5 -9
-11 -165 -434 -174 -472 -17 -70 -15 -159 4 -199 26 -55 118 -96 224 -99 28
-1 31 -4 31 -33 l0 -31 -300 0 -300 1 0 30 c0 26 5 33 34 43 52 19 129 94 164
160 17 32 201 495 408 1028 207 533 378 975 381 982 3 7 17 12 30 10 23 -3 43
-49 269 -633z m8828 -380 c216 -555 400 -1024 409 -1041 38 -73 114 -134 167
-134 16 0 20 -6 20 -32 l0 -33 -375 0 -376 0 4 30 c3 25 8 30 33 32 112 7 179
37 189 84 4 17 4 47 0 67 -7 38 -212 599 -226 617 -5 6 -142 9 -386 7 l-378
-2 -78 -203 c-43 -111 -84 -227 -92 -257 -17 -63 -20 -167 -6 -203 22 -58 87
-93 190 -105 64 -7 66 -8 69 -38 l3 -30 -301 0 -300 1 0 30 c0 26 5 33 34 43
52 19 129 94 164 160 17 32 51 110 76 173 24 63 188 486 365 940 176 454 328
845 337 868 14 35 21 42 41 39 23 -3 51 -71 417 -1013z m-6949 981 c223 -32
383 -135 457 -292 29 -61 33 -81 36 -172 4 -89 1 -113 -22 -186 -53 -172 -201
-307 -411 -376 l-40 -14 88 -17 c359 -72 541 -247 552 -534 7 -181 -41 -303
-169 -431 -92 -91 -175 -138 -316 -176 -84 -22 -92 -23 -648 -23 l-563 0 3 30
c3 29 5 30 72 38 97 10 134 31 160 86 21 46 21 51 21 956 0 981 1 956 -53
1008 -28 27 -100 47 -168 47 -32 0 -34 2 -34 33 l0 32 493 -1 c270 0 515 -4
542 -8z m8845 -14 c138 -30 240 -65 320 -109 258 -141 414 -396 461 -750 15
-117 6 -411 -16 -508 -85 -380 -305 -645 -636 -766 -46 -17 -124 -40 -174 -52
-86 -21 -114 -22 -618 -22 l-528 0 3 30 c3 29 5 30 71 37 102 12 134 29 160
85 l22 48 0 910 c0 848 -1 913 -18 955 -10 25 -28 53 -42 63 -26 19 -106 37
-161 37 -32 0 -34 2 -34 33 l0 32 543 0 c527 -1 545 -1 647 -23z m-5429 -2917
c280 -49 501 -200 642 -440 160 -272 208 -710 117 -1071 -137 -543 -558 -849
-1092 -793 -336 35 -614 233 -753 534 -80 174 -106 300 -112 552 -6 221 6 327
54 493 109 377 386 647 744 725 86 18 296 19 400 0z m2454 -15 c94 -30 172
-70 277 -142 123 -84 147 -76 172 60 l12 67 39 3 38 3 -6 -113 c-4 -62 -7
-227 -7 -365 l0 -253 -38 0 -38 0 -27 138 c-35 175 -81 274 -171 370 -120 127
-267 190 -466 199 -175 8 -280 -23 -392 -116 -135 -111 -249 -320 -298 -546
-43 -196 -54 -526 -25 -733 62 -438 270 -724 575 -788 134 -29 324 -1 468 67
128 61 247 212 286 364 13 53 46 254 46 284 0 6 17 11 40 11 l40 0 0 -267 c0
-148 3 -319 7 -380 l6 -113 -40 0 -40 0 -7 56 c-3 30 -13 71 -21 90 -21 51
-60 47 -161 -19 -179 -117 -310 -163 -482 -171 -556 -24 -951 312 -1037 884
-20 130 -19 401 1 521 83 485 368 813 785 904 44 9 116 13 229 11 140 -2 176
-6 235 -26z m7626 15 c280 -49 501 -200 642 -440 160 -272 208 -710 117 -1071
-137 -543 -558 -849 -1092 -793 -336 35 -614 233 -753 534 -80 174 -106 300
-112 552 -6 221 6 327 54 493 109 377 386 647 744 725 86 18 296 19 400 0z
m-12226 -10 c33 -9 96 -37 140 -62 137 -81 153 -87 180 -75 19 9 29 27 42 72
l17 61 35 -3 c25 -2 35 -7 33 -18 -2 -8 -6 -153 -9 -323 l-6 -308 -36 3 c-36
3 -36 3 -43 62 -35 282 -190 491 -396 535 -106 22 -228 9 -311 -33 -52 -27
-120 -96 -146 -146 -41 -81 -51 -179 -29 -285 12 -57 57 -130 118 -190 59 -59
115 -98 406 -281 203 -129 287 -191 375 -279 138 -139 185 -248 185 -430 0
-184 -47 -305 -160 -417 -126 -123 -286 -180 -510 -181 -179 0 -282 27 -435
116 -63 37 -115 46 -135 22 -7 -9 -19 -37 -25 -63 -12 -45 -14 -47 -50 -50
l-38 -3 6 118 c4 65 7 236 7 381 l0 263 37 -3 37 -3 13 -95 c46 -345 195 -555
430 -605 164 -35 314 -1 428 98 116 100 149 330 71 493 -54 114 -157 203 -441
384 -313 200 -394 266 -475 387 -70 105 -94 188 -94 328 0 178 43 285 157 392
113 106 246 152 442 152 78 1 142 -4 180 -14z m14240 0 c33 -9 96 -37 140 -62
137 -81 153 -87 180 -75 19 9 29 27 42 72 l17 61 35 -3 c25 -2 35 -7 33 -18
-2 -8 -6 -153 -9 -323 l-6 -308 -36 3 c-36 3 -36 3 -43 62 -35 282 -190 491
-396 535 -106 22 -228 9 -311 -33 -52 -27 -120 -96 -146 -146 -41 -81 -51
-179 -29 -285 12 -57 57 -130 118 -190 59 -59 115 -98 406 -281 203 -129 287
-191 375 -279 138 -139 185 -248 185 -430 0 -184 -47 -305 -160 -417 -126
-123 -286 -180 -510 -181 -179 0 -282 27 -435 116 -63 37 -115 46 -135 22 -7
-9 -19 -37 -25 -63 -12 -45 -14 -47 -50 -50 l-38 -3 6 118 c4 65 7 236 7 381
l0 263 37 -3 37 -3 13 -95 c46 -345 195 -555 430 -605 164 -35 314 -1 428 98
116 100 149 330 71 493 -54 114 -157 203 -441 384 -313 200 -394 266 -475 387
-70 105 -94 188 -94 328 0 178 43 285 157 392 113 106 246 152 442 152 78 1
142 -4 180 -14z m-16239 -35 c446 -1152 768 -1979 783 -2009 41 -79 116 -141
171 -141 16 0 20 -6 20 -32 l0 -33 -375 0 -376 0 4 29 c2 20 9 30 23 32 10 1
40 5 67 8 26 3 65 15 87 26 31 16 40 27 46 56 9 49 -6 98 -125 414 l-99 265
-377 5 c-207 3 -380 3 -385 0 -10 -7 -165 -415 -179 -472 -16 -67 -14 -164 5
-203 22 -48 96 -85 184 -92 l70 -6 0 -32 0 -31 -300 0 -300 1 0 30 c0 26 5 33
34 43 52 19 129 94 164 160 17 32 201 495 408 1028 207 533 378 975 381 982 3
7 17 12 30 10 18 -2 29 -13 39 -38z m9560 -1 c7 -19 182 -469 389 -1002 206
-532 384 -985 394 -1006 41 -79 116 -141 171 -141 16 0 20 -6 20 -32 l0 -33
-375 0 c-243 0 -375 4 -375 10 1 44 11 52 74 57 34 3 80 15 103 27 34 17 43
28 49 57 9 49 -6 98 -125 414 l-99 265 -384 3 -383 2 -78 -202 c-43 -112 -84
-228 -92 -258 -20 -75 -21 -170 -1 -212 28 -57 104 -93 214 -99 40 -3 42 -5
42 -34 l0 -31 -300 1 -300 0 0 30 c0 26 5 33 34 43 52 19 129 94 164 159 17
33 173 426 347 874 499 1287 443 1150 472 1146 19 -2 30 -13 39 -38z m-1226
-15 c0 -31 0 -31 -66 -37 -75 -7 -129 -30 -156 -67 -11 -16 -22 -55 -28 -100
-10 -94 -11 -1673 0 -1758 4 -35 14 -76 20 -93 17 -41 76 -69 161 -76 l69 -6
0 -31 0 -31 -405 0 -406 0 3 30 c3 29 5 30 72 38 97 10 134 31 160 86 21 46
21 53 23 931 2 545 -1 904 -7 935 -19 93 -68 133 -179 142 l-71 6 0 31 0 31
405 0 405 0 0 -31z m3410 22 c325 -57 505 -150 652 -334 145 -182 218 -428
218 -732 0 -294 -55 -508 -182 -702 -146 -224 -351 -360 -653 -431 -86 -20
-114 -21 -618 -22 l-528 0 3 30 c3 29 5 30 72 38 97 10 134 31 160 86 21 46
21 53 23 931 1 541 -1 904 -7 935 -19 93 -66 131 -178 141 l-72 7 0 31 0 31
533 -1 c292 0 552 -4 577 -8z m-13810 -502 c107 -42 173 -113 196 -211 18 -76
17 -128 -2 -193 -46 -154 -159 -234 -476 -336 l-87 -28 42 -24 c215 -121 276
-430 129 -658 -147 -227 -454 -344 -789 -300 -407 54 -653 282 -653 605 0 209
132 383 359 474 l80 33 -48 27 c-147 82 -220 239 -172 368 43 113 141 186 285
210 87 15 216 6 280 -18 168 -63 231 -266 101 -327 -89 -43 -194 15 -195 107
0 55 58 127 102 127 32 0 17 31 -27 54 -32 17 -58 21 -130 21 -81 0 -95 -3
-143 -29 -97 -54 -139 -142 -129 -275 6 -92 29 -151 83 -210 35 -40 40 -42 76
-36 72 12 157 8 183 -9 31 -20 32 -50 3 -70 -32 -23 -72 -20 -159 11 l-76 27
-74 -36 c-148 -71 -216 -166 -226 -317 -11 -160 31 -277 138 -383 73 -72 164
-123 279 -155 91 -25 366 -25 460 0 167 46 309 147 365 261 83 169 8 398 -156
479 l-49 25 -104 -33 c-291 -91 -386 -157 -386 -268 0 -106 96 -189 220 -188
59 0 131 19 137 36 2 6 -12 16 -30 23 -49 18 -69 45 -74 99 -12 124 134 188
224 98 29 -29 33 -39 33 -85 0 -67 -22 -112 -74 -150 -122 -90 -328 -82 -430
17 -58 57 -81 113 -81 203 0 62 5 86 28 132 60 122 174 186 503 282 273 81
376 117 451 162 109 66 143 116 143 212 0 100 -71 183 -186 218 -84 25 -176
14 -139 -16 27 -22 45 -66 45 -108 0 -112 -178 -155 -244 -60 -20 28 -21 100
-1 138 44 86 262 127 395 74z"/>
<path d="M20553 11185 c-206 -56 -383 -268 -468 -560 -52 -181 -60 -252 -60
-535 1 -235 3 -276 23 -367 82 -378 262 -625 512 -704 87 -27 222 -27 312 1
335 103 549 615 508 1218 -15 237 -52 386 -135 557 -98 202 -244 339 -414 389
-67 20 -207 20 -278 1z"/>
<path d="M29551 11184 c-245 -66 -439 -347 -506 -732 -36 -212 -35 -544 4
-729 78 -372 261 -625 510 -703 86 -27 226 -27 313 0 240 74 420 352 488 755
28 166 31 464 6 624 -31 204 -92 369 -188 512 -95 143 -219 239 -353 273 -73
20 -202 19 -274 0z"/>
<path d="M16391 10799 c-5 -13 -83 -218 -175 -455 -91 -238 -166 -437 -166
-443 0 -8 100 -11 350 -11 193 0 350 3 350 6 0 8 -341 918 -345 923 -3 2 -9
-7 -14 -20z"/>
<path d="M25071 10797 c-6 -15 -85 -220 -176 -456 -91 -236 -165 -434 -165
-440 0 -8 103 -11 350 -11 193 0 350 3 350 6 0 8 -341 918 -345 923 -3 2 -9
-8 -14 -22z"/>
<path d="M18294 11139 c-41 -12 -81 -53 -95 -98 -8 -23 -13 -182 -16 -453 l-5
-418 138 0 c241 0 333 28 423 125 80 89 122 238 116 415 -9 255 -106 392 -305
430 -64 12 -213 12 -256 -1z"/>
<path d="M18182 9653 c5 -472 7 -500 47 -547 32 -37 78 -48 205 -47 207 2 340
45 434 141 89 90 131 204 137 375 7 181 -38 318 -135 409 -105 98 -214 126
-497 126 l-195 0 4 -457z"/>
<path d="M26997 11146 c-61 -17 -91 -46 -108 -104 -21 -70 -20 -1815 0 -1885
27 -92 88 -119 264 -116 271 5 446 67 587 209 116 116 171 239 215 480 24 130
30 545 10 682 -70 480 -269 689 -699 737 -123 14 -209 13 -269 -3z"/>
<path d="M21731 8214 c-245 -66 -439 -346 -506 -733 -36 -210 -35 -543 4 -728
78 -377 275 -643 525 -709 70 -19 220 -18 287 2 261 77 452 385 509 822 15
113 19 326 9 447 -41 470 -257 822 -554 899 -73 20 -202 19 -274 0z"/>
<path d="M31811 8214 c-245 -66 -439 -346 -506 -733 -36 -210 -35 -543 4 -728
78 -377 275 -643 525 -709 70 -19 220 -18 287 2 261 77 452 385 509 822 15
113 19 326 9 447 -41 470 -257 822 -554 899 -73 20 -202 19 -274 0z"/>
<path d="M17771 7829 c-5 -13 -83 -218 -175 -456 -91 -238 -166 -437 -166
-443 0 -7 115 -10 350 -10 193 0 350 2 350 5 0 8 -341 919 -345 924 -3 2 -9
-7 -14 -20z"/>
<path d="M27331 7829 c-5 -13 -83 -218 -175 -456 -91 -237 -166 -436 -166
-442 0 -8 102 -11 350 -11 193 0 350 2 350 5 0 8 -341 919 -345 924 -3 2 -9
-7 -14 -20z"/>
<path d="M29245 8175 c-55 -15 -88 -46 -106 -103 -15 -45 -23 -1703 -9 -1820
17 -138 59 -174 212 -180 264 -11 489 55 630 186 114 106 177 235 225 459 25
121 27 143 27 403 1 359 -22 496 -116 690 -110 227 -283 335 -592 369 -124 14
-209 13 -271 -4z"/>
</g>
</svg>
