<svg fill="#000000" xmlns="http://www.w3.org/2000/svg" viewBox="0 0 80 80" width="80px" height="80px"><path fill="none" stroke="#000000" stroke-miterlimit="10" stroke-width="2" d="M72.692,20.121c-2.322,1.031-4.716,1.717-7.333,2.037l-0.023-0.046c2.699-1.616,4.62-4.111,5.596-7.163c-2.524,1.497-5.321,2.585-8.299,3.171c-2.383-2.54-5.78-4.127-9.538-4.127c-7.216,0-13.068,5.852-13.068,13.068c0,1.024,0.117,2.022,0.337,2.978c-10.86-0.544-20.488-5.748-26.934-13.654c-1.123,1.929-1.767,4.174-1.767,6.571c0,4.533,2.306,8.532,5.812,10.875c-2.142-0.069-4.156-0.655-5.918-1.635c0,0.056,0,0.109,0,0.165c0,6.332,4.504,11.613,10.483,12.813c-1.096,0.3-2.25,0.459-3.445,0.459c-0.841,0-1.661-0.082-2.457-0.234c1.664,5.191,6.489,8.97,12.208,9.076c-4.472,3.506-10.106,5.594-16.228,5.594c-1.054,0-2.094-0.061-3.118-0.183c5.783,3.707,12.651,5.87,20.031,5.87c24.036,0,37.178-19.912,37.178-37.18c0-0.565-0.013-1.131-0.037-1.69C68.725,25.041,70.941,22.74,72.692,20.121z"/><path d="M44 26A1 1 0 1 0 44 28 1 1 0 1 0 44 26zM53 17A1 1 0 1 0 53 19 1 1 0 1 0 53 17zM34 51A1 1 0 1 0 34 53 1 1 0 1 0 34 51zM33 44A1 1 0 1 0 33 46 1 1 0 1 0 33 44zM29 44A1 1 0 1 0 29 46 1 1 0 1 0 29 44zM24 35A1 1 0 1 0 24 37 1 1 0 1 0 24 35zM28 36A1 1 0 1 0 28 38 1 1 0 1 0 28 36zM32 37A1 1 0 1 0 32 39 1 1 0 1 0 32 37z"/><path d="M48.5 18.206A1 1 0 1 0 48.5 20.206A1 1 0 1 0 48.5 18.206Z" transform="rotate(-30 48.499 19.208)"/><path d="M45.206 21.5A1 1 0 1 0 45.206 23.5A1 1 0 1 0 45.206 21.5Z" transform="rotate(-60 45.206 22.501)"/></svg>