<?xml version="1.0" standalone="no"?>
<!DOCTYPE svg PUBLIC "-//W3C//DTD SVG 20010904//EN"
 "http://www.w3.org/TR/2001/REC-SVG-20010904/DTD/svg10.dtd">
<svg version="1.0" xmlns="http://www.w3.org/2000/svg"
 width="4905.000000pt" height="4571.000000pt" viewBox="0 0 4905.000000 4571.000000"
 preserveAspectRatio="xMidYMid meet">
<metadata>
Created by potrace 1.16, written by Peter Selinger 2001-2019
</metadata>
<g transform="translate(0.000000,4571.000000) scale(0.100000,-0.100000)"
fill="#000000" stroke="none">
<path d="M24280 40407 c-3 -2 -90 -7 -195 -11 -104 -4 -208 -9 -230 -11 -22
-2 -78 -6 -125 -10 -241 -17 -651 -76 -873 -126 -727 -160 -1281 -425 -1667
-795 -282 -271 -443 -558 -522 -930 l-23 -109 -3 -9052 -2 -9052 129 -80 c490
-304 992 -545 1504 -720 181 -62 406 -131 426 -131 8 0 11 2347 11 9438 0
8442 2 9444 15 9497 47 177 215 355 436 459 169 80 431 140 759 172 190 19
897 28 1070 13 545 -45 838 -119 1061 -269 90 -61 218 -193 256 -266 64 -121
63 -102 63 -926 l0 -747 38 -7 c223 -39 648 -140 922 -219 296 -85 635 -205
1058 -374 l53 -21 -4 1143 -3 1142 -27 122 c-36 165 -79 287 -144 417 -350
699 -1208 1182 -2423 1365 -171 26 -480 58 -635 66 -66 4 -136 9 -155 11 -53
6 -764 17 -770 11z"/>
<path d="M24629 36666 c-2 -2 -62 -7 -134 -10 -71 -4 -146 -9 -165 -11 -19 -2
-80 -6 -135 -10 -131 -8 -629 -53 -725 -65 -41 -5 -97 -12 -125 -15 -155 -19
-381 -58 -387 -68 -8 -13 -11 -1860 -3 -1868 3 -3 73 7 157 23 125 23 347 58
538 83 61 8 341 33 450 40 58 4 121 9 140 11 55 5 688 5 755 -1 33 -3 125 -10
205 -15 1421 -103 2843 -645 4025 -1533 449 -338 781 -647 1242 -1159 l142
-157 203 177 c112 97 439 381 726 631 l522 454 -62 66 c-35 36 -156 165 -270
287 -404 429 -858 835 -1328 1188 -1069 802 -2247 1361 -3536 1680 -605 149
-1288 244 -1884 261 -102 3 -221 7 -266 10 -45 3 -83 3 -85 1z"/>
<path d="M20165 35509 c-115 -66 -264 -152 -330 -191 -1662 -988 -2952 -2366
-3815 -4073 -322 -636 -553 -1249 -734 -1945 -129 -496 -238 -1152 -271 -1635
-4 -49 -8 -101 -11 -114 -18 -121 -26 -977 -11 -1271 101 -1975 770 -3824
1961 -5415 702 -938 1553 -1731 2541 -2368 1454 -937 3010 -1442 4735 -1537
157 -8 977 -6 1060 4 25 2 90 7 145 11 183 11 623 58 668 71 16 5 17 60 17
970 0 765 -3 964 -12 964 -7 0 -65 -9 -128 -20 -207 -36 -527 -71 -810 -90
-197 -13 -872 -4 -1086 14 -1344 113 -2533 528 -3658 1277 -762 506 -1411
1120 -1965 1859 -842 1123 -1371 2415 -1536 3755 -4 28 -8 61 -10 75 -6 37
-34 367 -44 510 -11 162 -6 879 8 1040 25 292 43 449 77 670 122 796 366 1564
726 2284 454 907 1112 1776 1808 2387 265 232 617 510 842 665 l58 39 0 1093
c0 600 -3 1092 -7 1091 -5 0 -102 -54 -218 -120z"/>
<path d="M26370 31468 c1 -3056 -1 -2918 49 -3046 31 -78 91 -161 165 -229
117 -107 236 -158 490 -208 293 -57 327 -60 666 -60 352 0 352 0 560 73 l135
48 0 2709 0 2709 -75 44 c-487 288 -1056 540 -1581 700 -155 48 -385 112 -402
112 -4 0 -7 -1284 -7 -2852z"/>
<path d="M24780 25926 c-30 -7 -103 -30 -161 -51 l-106 -39 -29 -126 c-28
-121 -29 -133 -29 -385 1 -255 1 -261 28 -340 79 -235 245 -381 523 -459 236
-66 353 -76 904 -76 l460 0 0 -4808 c0 -5304 6 -4858 -62 -4984 -64 -121 -215
-272 -337 -337 -178 -95 -497 -160 -936 -190 -131 -10 -903 -6 -1005 4 -381
39 -549 68 -745 132 -250 81 -464 259 -547 454 l-23 54 -3 1066 -2 1066 -83
18 c-571 120 -1210 325 -1757 562 -107 46 -203 87 -213 90 -17 5 -17 -60 -15
-1448 l3 -1454 23 -109 c109 -512 402 -906 914 -1225 587 -367 1393 -569 2498
-628 216 -12 890 -8 1090 6 170 12 459 38 510 46 14 2 50 6 80 10 389 44 871
163 1225 302 405 160 717 361 975 630 268 279 417 588 465 966 14 109 15 690
13 5537 l-3 5415 -28 59 c-54 116 -134 186 -260 230 l-62 21 -1625 2 c-1265 1
-1637 -2 -1680 -11z"/>
<path d="M30849 21822 c-395 -472 -758 -836 -1174 -1177 -254 -209 -617 -467
-887 -631 l-98 -59 0 -1077 c0 -593 3 -1078 6 -1078 13 0 300 137 454 217
1128 586 2110 1362 2926 2313 163 189 426 518 423 527 -2 4 -309 246 -684 537
-374 291 -707 550 -741 577 l-60 48 -165 -197z"/>
<path d="M21370 11244 c-261 -57 -465 -202 -615 -438 -126 -198 -185 -430
-185 -726 0 -372 90 -645 282 -855 296 -324 869 -387 1245 -138 241 160 402
430 460 773 22 132 22 403 -1 535 -82 470 -356 769 -779 850 -98 19 -318 18
-407 -1z m325 -60 c268 -69 473 -365 539 -779 56 -350 3 -777 -130 -1038 -91
-180 -220 -303 -361 -347 -77 -24 -206 -28 -283 -10 -278 65 -493 375 -556
802 -21 144 -15 505 10 641 74 394 262 665 507 731 72 19 201 20 274 0z"/>
<path d="M23770 11241 c-389 -82 -674 -397 -770 -848 -30 -139 -38 -410 -17
-558 60 -423 277 -716 619 -837 120 -42 236 -61 388 -61 209 0 311 32 495 157
54 36 104 66 112 66 41 0 67 -44 88 -147 6 -30 10 -33 41 -33 l35 0 -1 384
c-1 253 2 397 10 425 13 48 44 73 104 81 37 4 41 8 44 35 l3 30 -391 1 -390 2
0 -33 0 -32 85 -5 c116 -8 171 -35 204 -102 23 -46 25 -61 29 -261 6 -273 1
-315 -44 -365 -19 -21 -67 -54 -108 -74 -103 -51 -197 -69 -321 -62 -192 10
-326 65 -440 179 -165 165 -240 409 -252 817 -10 353 31 599 138 815 79 162
187 276 314 335 226 104 550 42 734 -141 100 -100 141 -191 183 -405 l23 -114
37 0 38 0 0 193 c0 105 3 270 7 365 l6 172 -36 0 c-39 0 -41 -3 -51 -80 -9
-62 -39 -110 -69 -110 -13 0 -44 15 -68 33 -119 89 -261 160 -364 182 -98 21
-307 18 -415 -4z"/>
<path d="M30371 11245 c-153 -34 -275 -92 -396 -189 -206 -164 -340 -414 -390
-721 -19 -121 -20 -389 0 -515 77 -508 395 -831 864 -879 244 -25 465 25 651
150 155 104 295 276 370 455 160 384 136 931 -54 1255 -142 241 -357 390 -639
444 -99 19 -318 19 -406 0z m324 -61 c274 -71 488 -389 546 -814 13 -96 16
-404 5 -495 -57 -463 -247 -780 -515 -859 -72 -21 -221 -21 -292 0 -234 69
-419 302 -504 639 -33 128 -46 256 -46 440 0 197 14 325 51 472 83 327 263
559 481 617 72 19 201 20 274 0z"/>
<path d="M32445 11236 c-133 -31 -215 -76 -301 -168 -94 -99 -128 -196 -128
-363 0 -133 23 -219 83 -313 85 -130 151 -185 472 -392 309 -200 400 -278 455
-395 77 -160 45 -388 -68 -490 -185 -168 -503 -148 -676 41 -95 103 -158 261
-185 464 l-13 95 -37 3 -37 3 0 -244 c0 -134 -3 -306 -7 -381 l-6 -137 38 3
c36 3 38 5 50 50 6 26 18 54 25 63 20 24 73 15 140 -25 66 -39 178 -85 243
-100 27 -6 92 -12 145 -14 300 -12 547 108 653 316 41 81 59 166 59 283 0 284
-120 432 -593 730 -270 170 -312 199 -373 260 -75 74 -111 142 -124 233 -29
209 84 380 278 421 100 21 216 10 308 -29 70 -30 167 -130 214 -220 42 -81 90
-244 90 -305 0 -35 13 -45 56 -45 l24 0 1 223 c0 122 2 231 4 242 2 10 5 55 6
100 l2 80 -35 3 c-34 3 -35 3 -51 -58 -28 -98 -59 -100 -196 -12 -109 71 -157
84 -316 88 -95 3 -159 -1 -200 -10z"/>
<path d="M17337 11178 c-13 -35 -188 -484 -387 -998 -201 -518 -377 -958 -395
-986 -38 -59 -105 -119 -152 -136 -28 -10 -33 -17 -33 -43 l0 -30 300 -1 300
0 0 31 c0 29 -3 32 -31 33 -106 3 -198 44 -224 99 -19 40 -21 129 -4 199 9 40
165 461 174 472 2 2 174 4 383 5 l381 2 110 -295 c116 -313 127 -350 116 -399
-9 -41 -66 -71 -154 -79 -64 -7 -66 -8 -69 -37 l-3 -30 376 0 375 0 0 33 c0
26 -4 32 -20 32 -32 0 -95 36 -124 71 -41 49 -56 81 -217 496 -206 532 -304
784 -478 1233 -137 354 -151 385 -174 388 -22 3 -27 -4 -50 -60z m112 -821
c94 -251 171 -459 171 -462 0 -3 -157 -5 -350 -5 -236 0 -350 3 -350 10 0 6
75 205 166 443 91 238 170 443 175 456 5 13 11 22 14 20 2 -3 81 -210 174
-462z"/>
<path d="M26036 11199 c-9 -23 -161 -414 -337 -868 -177 -454 -341 -877 -365
-940 -25 -63 -59 -141 -76 -173 -35 -66 -112 -141 -164 -160 -29 -10 -34 -17
-34 -43 l0 -30 300 -1 301 0 -3 30 c-3 30 -5 31 -69 38 -103 12 -168 47 -190
105 -14 36 -11 140 6 203 8 30 49 146 92 257 l78 203 378 2 c244 2 381 -1 386
-7 16 -21 220 -582 227 -622 3 -23 4 -53 0 -67 -10 -41 -85 -72 -190 -79 -25
-2 -30 -7 -33 -32 l-4 -30 376 0 375 0 0 33 c0 26 -4 32 -20 32 -53 0 -129 61
-167 134 -9 17 -193 486 -409 1041 -366 942 -394 1010 -417 1013 -20 3 -27 -4
-41 -39z m103 -841 c94 -251 171 -459 171 -462 0 -3 -157 -6 -350 -6 -247 0
-350 3 -350 11 0 6 74 204 165 440 91 236 170 441 176 456 5 14 11 24 14 22 2
-2 80 -210 174 -461z"/>
<path d="M18510 11183 c0 -31 2 -33 34 -33 68 0 140 -20 168 -47 54 -52 53
-27 53 -1008 0 -905 0 -910 -21 -956 -26 -55 -63 -76 -160 -86 -67 -8 -69 -9
-72 -38 l-3 -30 563 0 c556 0 564 1 648 23 141 38 224 85 316 176 128 128 176
250 169 431 -4 91 -22 161 -63 240 -73 143 -244 245 -489 294 l-88 17 40 14
c210 69 358 204 411 376 23 73 26 97 22 186 -3 91 -7 111 -36 172 -60 128
-191 230 -347 269 -108 28 -155 30 -652 31 l-493 1 0 -32z m920 -43 c199 -38
296 -175 305 -430 6 -180 -35 -325 -116 -415 -90 -97 -182 -125 -423 -125
l-138 0 5 418 c3 271 8 430 16 453 14 45 54 86 95 98 43 13 192 13 256 1z m92
-1045 c252 -53 375 -229 363 -520 -6 -171 -48 -285 -137 -375 -94 -96 -227
-139 -434 -141 -127 -1 -173 10 -205 47 -40 47 -42 75 -47 547 l-4 457 195 0
c138 0 217 -5 269 -15z"/>
<path d="M27190 11183 c0 -31 2 -33 34 -33 68 0 140 -20 168 -47 54 -52 53
-27 53 -1008 l0 -910 -22 -48 c-26 -56 -58 -73 -160 -85 -66 -7 -68 -8 -71
-37 l-3 -30 528 0 c504 1 532 2 619 22 469 111 756 427 823 908 14 99 14 332
0 431 -40 290 -162 524 -345 663 -120 91 -253 146 -454 187 -75 16 -149 18
-627 19 l-543 0 0 -32z m946 -34 c218 -24 355 -80 470 -194 117 -115 189 -286
229 -540 19 -128 14 -557 -9 -680 -42 -225 -99 -362 -197 -468 -143 -157 -318
-220 -609 -221 -174 -1 -206 9 -243 71 -34 59 -38 199 -35 1065 3 829 3 833
25 880 11 25 33 54 48 64 51 34 159 41 321 23z"/>
<path d="M22550 8273 c-152 -31 -273 -89 -395 -187 -204 -163 -336 -406 -389
-715 -20 -120 -21 -391 -1 -521 87 -573 480 -908 1038 -883 372 16 686 241
843 603 135 311 147 757 29 1087 -118 331 -360 543 -700 614 -107 23 -323 24
-425 2z m325 -59 c231 -60 428 -304 510 -634 61 -245 67 -563 15 -832 -66
-344 -232 -599 -445 -687 -73 -30 -227 -40 -314 -21 -276 60 -494 375 -557
802 -21 144 -15 505 10 641 74 394 262 665 507 731 72 19 201 20 274 0z"/>
<path d="M24950 8274 c-155 -34 -274 -90 -395 -188 -204 -163 -336 -406 -389
-715 -20 -120 -21 -391 -1 -521 86 -572 481 -908 1037 -884 172 8 303 54 482
171 101 66 140 70 161 19 8 -19 18 -60 21 -90 l7 -56 40 0 40 0 -6 113 c-4 61
-7 232 -7 380 l0 267 -40 0 c-23 0 -40 -5 -40 -11 0 -30 -33 -231 -46 -284
-39 -152 -158 -303 -286 -364 -144 -68 -334 -96 -468 -67 -305 64 -513 350
-575 788 -29 205 -17 540 25 733 49 226 163 435 298 546 112 93 217 124 392
116 199 -9 346 -72 466 -199 90 -96 136 -195 171 -370 l27 -138 38 0 38 0 0
253 c0 138 3 303 7 365 l6 113 -38 -3 -39 -3 -12 -67 c-25 -136 -49 -144 -172
-60 -105 72 -183 112 -277 142 -60 20 -95 24 -235 26 -113 1 -185 -2 -230 -12z"/>
<path d="M32630 8273 c-152 -31 -273 -89 -395 -187 -204 -163 -336 -406 -389
-715 -20 -120 -21 -391 -1 -521 87 -573 480 -908 1038 -883 372 16 686 241
843 603 135 311 147 757 29 1087 -118 331 -360 543 -700 614 -107 23 -323 24
-425 2z m325 -59 c231 -60 428 -304 510 -634 61 -245 67 -563 15 -832 -66
-344 -232 -599 -445 -687 -73 -30 -227 -40 -314 -21 -276 60 -494 375 -557
802 -21 144 -15 505 10 641 74 394 262 665 507 731 72 19 201 20 274 0z"/>
<path d="M20445 8261 c-107 -29 -182 -69 -252 -134 -114 -107 -157 -214 -157
-392 0 -140 24 -223 94 -328 81 -121 162 -187 475 -387 284 -181 387 -270 441
-384 78 -163 45 -393 -71 -493 -142 -123 -362 -147 -539 -59 -171 84 -281 279
-319 566 l-13 95 -37 3 -37 3 0 -263 c0 -145 -3 -316 -7 -381 l-6 -118 38 3
c36 3 38 5 50 50 6 26 18 54 25 63 20 24 72 15 135 -22 153 -89 256 -116 435
-116 224 1 384 58 510 181 113 112 160 233 160 417 0 182 -47 291 -185 430
-88 88 -172 150 -375 279 -291 183 -347 222 -406 281 -61 60 -106 133 -118
190 -22 106 -12 204 29 285 26 50 94 119 146 146 83 42 205 55 311 33 206 -44
361 -253 396 -535 7 -59 7 -59 43 -62 l36 -3 6 308 c3 170 7 315 9 323 2 11
-8 16 -33 18 l-35 3 -17 -60 c-18 -65 -42 -87 -80 -75 -12 3 -58 28 -102 54
-140 84 -170 93 -335 97 -118 2 -158 -1 -215 -16z"/>
<path d="M34685 8261 c-107 -29 -182 -69 -252 -134 -114 -107 -157 -214 -157
-392 0 -140 24 -223 94 -328 81 -121 162 -187 475 -387 284 -181 387 -270 441
-384 78 -163 45 -393 -71 -493 -142 -123 -362 -147 -539 -59 -171 84 -281 279
-319 566 l-13 95 -37 3 -37 3 0 -263 c0 -145 -3 -316 -7 -381 l-6 -118 38 3
c36 3 38 5 50 50 6 26 18 54 25 63 20 24 72 15 135 -22 153 -89 256 -116 435
-116 224 1 384 58 510 181 113 112 160 233 160 417 0 182 -47 291 -185 430
-88 88 -172 150 -375 279 -291 183 -347 222 -406 281 -61 60 -106 133 -118
190 -22 106 -12 204 29 285 26 50 94 119 146 146 83 42 205 55 311 33 206 -44
361 -253 396 -535 7 -59 7 -59 43 -62 l36 -3 6 308 c3 170 7 315 9 323 2 11
-8 16 -33 18 l-35 3 -17 -60 c-18 -65 -42 -87 -80 -75 -12 3 -58 28 -102 54
-140 84 -170 93 -335 97 -118 2 -158 -1 -215 -16z"/>
<path d="M18725 8228 c-9 -24 -130 -333 -267 -688 -138 -355 -301 -775 -363
-935 -62 -159 -123 -312 -136 -340 -29 -62 -122 -158 -172 -176 -32 -11 -37
-17 -37 -44 l0 -30 300 0 300 -1 0 32 c0 28 -3 31 -31 32 -104 3 -198 44 -223
97 -20 42 -20 142 -1 215 8 30 49 146 92 258 l78 202 383 -2 384 -3 99 -265
c119 -316 134 -365 125 -414 -6 -29 -15 -40 -48 -57 -23 -12 -69 -24 -102 -27
-63 -5 -76 -13 -76 -47 0 -20 7 -20 375 -20 l375 0 0 28 c0 18 -6 30 -17 33
-86 27 -134 67 -173 143 -17 35 -224 564 -668 1710 -119 308 -131 335 -155
338 -21 3 -27 -3 -42 -39z m104 -840 c94 -251 171 -460 171 -463 0 -3 -157 -5
-350 -5 -235 0 -350 3 -350 10 0 6 75 205 166 443 92 238 170 443 175 456 5
13 11 22 14 20 2 -2 80 -210 174 -461z"/>
<path d="M28246 8103 c-36 -93 -207 -534 -381 -982 -174 -448 -330 -841 -347
-874 -35 -65 -112 -140 -164 -159 -29 -10 -34 -17 -34 -43 l0 -30 300 0 300
-1 0 31 c0 29 -2 31 -42 34 -110 6 -186 42 -214 99 -20 42 -19 137 1 212 8 30
49 146 92 258 l78 202 383 -2 384 -3 99 -265 c119 -316 134 -365 125 -414 -6
-29 -15 -40 -49 -57 -23 -12 -69 -24 -103 -27 -63 -5 -73 -13 -74 -57 0 -6
132 -10 375 -10 l375 0 0 33 c0 26 -4 32 -20 32 -55 0 -130 62 -171 141 -10
21 -188 474 -394 1006 -207 533 -382 983 -389 1002 -9 25 -20 36 -39 38 -24 3
-28 -4 -91 -164z m153 -715 c94 -252 171 -460 171 -463 0 -3 -157 -5 -350 -5
-248 0 -350 3 -350 11 0 6 75 205 166 442 92 238 170 443 175 456 5 13 11 22
14 20 2 -3 81 -210 174 -461z"/>
<path d="M26340 8214 l0 -31 71 -6 c111 -9 160 -49 179 -142 6 -31 9 -390 7
-935 -2 -878 -2 -885 -23 -931 -26 -55 -63 -76 -160 -86 -67 -8 -69 -9 -72
-38 l-3 -30 406 0 406 0 -3 30 c-3 29 -5 30 -68 37 -82 9 -137 34 -156 70 -8
16 -19 59 -24 96 -11 88 -11 1665 0 1762 6 45 17 84 28 100 27 37 81 60 156
67 66 6 66 6 66 37 l0 31 -405 0 -405 0 0 -31z"/>
<path d="M29450 8214 l0 -31 72 -7 c112 -10 159 -48 178 -141 6 -31 8 -394 7
-935 -2 -878 -2 -885 -23 -931 -26 -55 -63 -76 -160 -86 -67 -8 -69 -9 -72
-38 l-3 -30 528 0 c504 1 532 2 618 22 302 71 507 207 653 431 127 194 182
408 182 702 0 449 -163 775 -470 943 -99 54 -219 91 -400 123 -25 4 -285 8
-577 8 l-533 1 0 -31z m946 -35 c429 -47 624 -252 699 -734 10 -65 13 -162 10
-350 -3 -235 -6 -272 -29 -384 -47 -218 -111 -348 -224 -453 -141 -131 -366
-197 -630 -186 -153 6 -195 42 -212 180 -14 117 -6 1775 9 1820 35 107 132
135 377 107z"/>
<path d="M16491 7744 c-70 -19 -118 -48 -136 -84 -20 -38 -19 -110 1 -138 66
-95 244 -52 244 60 0 42 -18 86 -45 108 -22 18 -3 30 51 30 96 0 197 -52 245
-127 50 -81 36 -196 -33 -260 -77 -71 -193 -119 -532 -219 -329 -96 -443 -160
-503 -282 -23 -46 -28 -70 -28 -132 0 -90 23 -146 81 -203 102 -99 308 -107
430 -17 52 38 74 83 74 150 0 46 -4 56 -33 85 -40 40 -87 51 -142 33 -57 -19
-88 -68 -82 -131 5 -54 25 -81 74 -99 42 -15 38 -29 -13 -46 -153 -51 -314 39
-314 175 0 111 95 177 386 268 l104 33 49 -25 c164 -81 239 -310 156 -479 -56
-114 -198 -215 -365 -261 -94 -25 -369 -25 -460 0 -115 32 -206 83 -279 155
-107 106 -149 223 -138 383 10 151 78 246 226 317 l74 36 76 -27 c87 -31 127
-34 159 -11 29 20 28 50 -3 70 -26 17 -111 21 -183 9 -36 -6 -41 -4 -76 36
-54 59 -77 118 -83 210 -10 133 32 221 129 275 48 26 62 29 143 29 72 0 98 -4
130 -21 44 -23 59 -54 27 -54 -26 0 -69 -35 -87 -70 -57 -109 64 -219 180
-164 130 61 67 264 -101 327 -64 24 -193 33 -280 18 -144 -24 -242 -97 -285
-210 -48 -129 25 -286 172 -368 l48 -27 -80 -33 c-227 -91 -359 -265 -359
-474 0 -215 103 -382 310 -502 73 -42 223 -87 343 -103 335 -44 642 73 788
299 148 229 88 538 -128 659 l-42 24 87 28 c254 82 365 143 430 239 88 127 77
320 -23 421 -94 93 -242 128 -384 90z"/>
</g>
</svg>
